# xmcd
#
# Track frame offsets: 
#        150
#        17782
#        31648
#        48011
#        63915
#        74051
#        88999
#        105962
#        123410
#        135390
#        150419
#
# Disc length: 2140 seconds
#
# Revision: 0
# Processed by: cddbd v1.5.2PL0 Copyright (c) Steve Scherf et al.
# Submitted via: ExactAudioCopy v1.0b1
#
DISCID=83085a0b
DTITLE=Kiss  - Hotter Than Hell First U.S Pressing Blue Label Casablan
DTITLE=ca NBLP-7006 Vinyl  
DYEAR=1900
DGENRE=
TTITLE0=Got To Choose
TTITLE1=Parasite
TTITLE2=Goin' Blind
TTITLE3=Hotter Than Hell
TTITLE4=Let Me Go, Rock 'n' Roll
TTITLE5=All The Way
TTITLE6=Watchin' You
TTITLE7=Mainline
TTITLE8=Comin' Home
TTITLE9=Strange Ways
TTITLE10=Let Me Go, Rock 'n' Roll (U.S Promo Mono)
EXTD=
EXTT0=
EXTT1=
EXTT2=
EXTT3=
EXTT4=
EXTT5=
EXTT6=
EXTT7=
EXTT8=
EXTT9=
EXTT10=
PLAYORDER=
